<svg width="77" height="65" viewBox="0 0 77 65" fill="none" xmlns="http://www.w3.org/2000/svg">
<path d="M21 2H56L74 32.5L56 63H21L3 32.5L21 2Z" stroke="url(#paint0_linear_2308_522)" stroke-width="4"/>
<path d="M37.0522 41.0684H40.6147" stroke="url(#paint1_linear_2308_522)" stroke-miterlimit="10" stroke-linecap="round" stroke-linejoin="round"/>
<path d="M41.9922 31.8059L45.2222 33.8365" stroke="url(#paint2_linear_2308_522)" stroke-miterlimit="10" stroke-linecap="round" stroke-linejoin="round"/>
<path d="M35.7222 31.8059L32.4922 33.8365" stroke="url(#paint3_linear_2308_522)" stroke-miterlimit="10" stroke-linecap="round" stroke-linejoin="round"/>
<path d="M37.0404 36.3302L29.3335 40.7359" stroke="url(#paint4_linear_2308_522)" stroke-miterlimit="10" stroke-linecap="round" stroke-linejoin="round"/>
<path d="M21.6266 36.3302L29.3335 40.7359V49.9746" stroke="url(#paint5_linear_2308_522)" stroke-miterlimit="10" stroke-linecap="round" stroke-linejoin="round"/>
<path d="M56.0404 36.3302L48.3335 40.7359" stroke="url(#paint6_linear_2308_522)" stroke-miterlimit="10" stroke-linecap="round" stroke-linejoin="round"/>
<path d="M40.6266 36.3302L48.3335 40.7359V49.9746" stroke="url(#paint7_linear_2308_522)" stroke-miterlimit="10" stroke-linecap="round" stroke-linejoin="round"/>
<path d="M44.011 30.6777L46.5522 29.2646V19.824L38.8335 15.5371L31.1147 19.824V29.2646L33.6916 30.6777" stroke="url(#paint8_linear_2308_522)" stroke-miterlimit="10" stroke-linecap="round" stroke-linejoin="round"/>
<path d="M35.7223 31.8059L38.8335 33.5515L41.9923 31.8059" stroke="url(#paint9_linear_2308_522)" stroke-miterlimit="10" stroke-linecap="round" stroke-linejoin="round"/>
<path d="M42.396 35.1309L40.6147 36.354V38.6934" stroke="url(#paint10_linear_2308_522)" stroke-miterlimit="10" stroke-linecap="round" stroke-linejoin="round"/>
<path d="M40.6147 41.0684V45.7827L48.3335 50.0696L56.0522 45.7827V36.354L48.3335 32.0671L45.2222 33.8365" stroke="url(#paint11_linear_2308_522)" stroke-miterlimit="10" stroke-linecap="round" stroke-linejoin="round"/>
<path d="M37.7885 41.199V35.9636L35.271 35.1309" stroke="url(#paint12_linear_2308_522)" stroke-miterlimit="10" stroke-linecap="round" stroke-linejoin="round"/>
<path d="M32.4922 33.8365L29.3335 32.0671L21.6147 36.354V45.7827L29.3335 50.0696L37.0522 45.7827V43.4434" stroke="url(#paint13_linear_2308_522)" stroke-miterlimit="10" stroke-linecap="round" stroke-linejoin="round"/>
<path d="M35.271 24.4434H42.396" stroke="url(#paint14_linear_2308_522)" stroke-miterlimit="10" stroke-linecap="round" stroke-linejoin="round"/>
<path d="M38.8335 28.0059V20.8809" stroke="url(#paint15_linear_2308_522)" stroke-miterlimit="10" stroke-linecap="round" stroke-linejoin="round"/>
<defs>
<linearGradient id="paint0_linear_2308_522" x1="38.5" y1="2" x2="38.5" y2="63" gradientUnits="userSpaceOnUse">
<stop stop-color="#EDFDF6"/>
<stop offset="1" stop-color="#F6FEFA"/>
</linearGradient>
<linearGradient id="paint1_linear_2308_522" x1="38.8335" y1="41.0684" x2="38.8335" y2="42.0684" gradientUnits="userSpaceOnUse">
<stop stop-color="#EDFDF6"/>
<stop offset="1" stop-color="#F6FEFA"/>
</linearGradient>
<linearGradient id="paint2_linear_2308_522" x1="43.6072" y1="31.8059" x2="43.6072" y2="33.8365" gradientUnits="userSpaceOnUse">
<stop stop-color="#EDFDF6"/>
<stop offset="1" stop-color="#F6FEFA"/>
</linearGradient>
<linearGradient id="paint3_linear_2308_522" x1="34.1072" y1="31.8059" x2="34.1072" y2="33.8365" gradientUnits="userSpaceOnUse">
<stop stop-color="#EDFDF6"/>
<stop offset="1" stop-color="#F6FEFA"/>
</linearGradient>
<linearGradient id="paint4_linear_2308_522" x1="33.1869" y1="36.3302" x2="33.1869" y2="40.7359" gradientUnits="userSpaceOnUse">
<stop stop-color="#EDFDF6"/>
<stop offset="1" stop-color="#F6FEFA"/>
</linearGradient>
<linearGradient id="paint5_linear_2308_522" x1="25.48" y1="36.3302" x2="25.48" y2="49.9746" gradientUnits="userSpaceOnUse">
<stop stop-color="#EDFDF6"/>
<stop offset="1" stop-color="#F6FEFA"/>
</linearGradient>
<linearGradient id="paint6_linear_2308_522" x1="52.1869" y1="36.3302" x2="52.1869" y2="40.7359" gradientUnits="userSpaceOnUse">
<stop stop-color="#EDFDF6"/>
<stop offset="1" stop-color="#F6FEFA"/>
</linearGradient>
<linearGradient id="paint7_linear_2308_522" x1="44.48" y1="36.3302" x2="44.48" y2="49.9746" gradientUnits="userSpaceOnUse">
<stop stop-color="#EDFDF6"/>
<stop offset="1" stop-color="#F6FEFA"/>
</linearGradient>
<linearGradient id="paint8_linear_2308_522" x1="38.8335" y1="15.5371" x2="38.8335" y2="30.6777" gradientUnits="userSpaceOnUse">
<stop stop-color="#EDFDF6"/>
<stop offset="1" stop-color="#F6FEFA"/>
</linearGradient>
<linearGradient id="paint9_linear_2308_522" x1="38.8573" y1="31.8059" x2="38.8573" y2="33.5515" gradientUnits="userSpaceOnUse">
<stop stop-color="#EDFDF6"/>
<stop offset="1" stop-color="#F6FEFA"/>
</linearGradient>
<linearGradient id="paint10_linear_2308_522" x1="41.5054" y1="35.1309" x2="41.5054" y2="38.6934" gradientUnits="userSpaceOnUse">
<stop stop-color="#EDFDF6"/>
<stop offset="1" stop-color="#F6FEFA"/>
</linearGradient>
<linearGradient id="paint11_linear_2308_522" x1="48.3335" y1="32.0671" x2="48.3335" y2="50.0696" gradientUnits="userSpaceOnUse">
<stop stop-color="#EDFDF6"/>
<stop offset="1" stop-color="#F6FEFA"/>
</linearGradient>
<linearGradient id="paint12_linear_2308_522" x1="36.5297" y1="35.1309" x2="36.5297" y2="41.199" gradientUnits="userSpaceOnUse">
<stop stop-color="#EDFDF6"/>
<stop offset="1" stop-color="#F6FEFA"/>
</linearGradient>
<linearGradient id="paint13_linear_2308_522" x1="29.3335" y1="32.0671" x2="29.3335" y2="50.0696" gradientUnits="userSpaceOnUse">
<stop stop-color="#EDFDF6"/>
<stop offset="1" stop-color="#F6FEFA"/>
</linearGradient>
<linearGradient id="paint14_linear_2308_522" x1="38.8335" y1="24.4434" x2="38.8335" y2="25.4434" gradientUnits="userSpaceOnUse">
<stop stop-color="#EDFDF6"/>
<stop offset="1" stop-color="#F6FEFA"/>
</linearGradient>
<linearGradient id="paint15_linear_2308_522" x1="39.3335" y1="20.8809" x2="39.3335" y2="28.0059" gradientUnits="userSpaceOnUse">
<stop stop-color="#EDFDF6"/>
<stop offset="1" stop-color="#F6FEFA"/>
</linearGradient>
</defs>
</svg>
