<svg width="57" height="49" viewBox="0 0 57 49" fill="none" xmlns="http://www.w3.org/2000/svg">
<path fill-rule="evenodd" clip-rule="evenodd" d="M23.4479 26.8216L38.2394 12.0304C38.6751 11.5944 39.3906 11.5989 39.8221 12.0304L41.2502 13.4584C41.6817 13.8899 41.6817 14.6099 41.2502 15.0412L26.4589 29.8326C26.0275 30.2641 25.3119 30.2685 24.876 29.8326L23.4479 28.4045C23.012 27.9686 23.012 27.2575 23.4479 26.8216Z" fill="#474747"/>
<path fill-rule="evenodd" clip-rule="evenodd" d="M18.8277 17.8063L27.8379 26.8165C28.2737 27.2524 28.2686 27.9688 27.8379 28.3994L26.4098 29.8275C25.9792 30.258 25.2576 30.258 24.8269 29.8275L15.8167 20.8173C15.3861 20.3867 15.381 19.6703 15.8167 19.2344L17.2448 17.8063C17.6807 17.3706 18.3918 17.3706 18.8277 17.8063Z" fill="#474747"/>
<g filter="url(#filter0_d_2577_4273)">
<path d="M17.9014 2H39.0986L50 20.5L39.0986 39H17.9014L7 20.5L17.9014 2Z" stroke="#474747" stroke-width="4" shape-rendering="crispEdges"/>
</g>
<defs>
<filter id="filter0_d_2577_4273" x="0.678589" y="0" width="55.6428" height="49" filterUnits="userSpaceOnUse" color-interpolation-filters="sRGB">
<feFlood flood-opacity="0" result="BackgroundImageFix"/>
<feColorMatrix in="SourceAlpha" type="matrix" values="0 0 0 0 0 0 0 0 0 0 0 0 0 0 0 0 0 0 127 0" result="hardAlpha"/>
<feOffset dy="4"/>
<feGaussianBlur stdDeviation="2"/>
<feComposite in2="hardAlpha" operator="out"/>
<feColorMatrix type="matrix" values="0 0 0 0 0 0 0 0 0 0 0 0 0 0 0 0 0 0 0.25 0"/>
<feBlend mode="normal" in2="BackgroundImageFix" result="effect1_dropShadow_2577_4273"/>
<feBlend mode="normal" in="SourceGraphic" in2="effect1_dropShadow_2577_4273" result="shape"/>
</filter>
</defs>
</svg>
