<svg width="100" height="101" viewBox="0 0 100 101" fill="none" xmlns="http://www.w3.org/2000/svg">
<path d="M7.24668 14.7208C11.2424 14.7208 14.4932 11.47 14.4932 7.47427C14.4932 3.47856 11.2424 0.227783 7.24668 0.227783C3.25098 0.227783 0 3.47856 0 7.47427C0 11.47 3.25098 14.7208 7.24668 14.7208ZM7.24668 3.15747C9.62695 3.15747 11.5635 5.09399 11.5635 7.47427C11.5635 9.85454 9.62695 11.7911 7.24668 11.7911C4.86621 11.7911 2.92969 9.85454 2.92969 7.47427C2.92969 5.09399 4.86621 3.15747 7.24668 3.15747ZM92.7533 23.5098C96.749 23.5098 100 20.259 100 16.2633C100 12.2676 96.749 9.01685 92.7533 9.01685C88.7576 9.01685 85.5068 12.2676 85.5068 16.2633C85.5068 20.259 88.7576 23.5098 92.7533 23.5098ZM92.7533 11.9465C95.1338 11.9465 97.0703 13.8831 97.0703 16.2633C97.0703 18.6436 95.1338 20.5801 92.7533 20.5801C90.373 20.5801 88.4365 18.6436 88.4365 16.2633C88.4365 13.8831 90.3732 11.9465 92.7533 11.9465ZM19.632 34.2731C20.1516 33.6153 20.301 32.7465 20.0316 31.9491C19.4814 30.3204 19.251 28.6104 19.3467 26.8667C19.7299 19.8899 25.2563 14.4575 32.2014 14.2301C35.3078 14.1286 38.3605 15.1225 40.8023 17.0288C41.3398 17.4485 42.0295 17.5989 42.6939 17.4417C43.3607 17.2838 43.9113 16.8383 44.2049 16.2198C46.3045 11.7969 50.823 8.93911 55.716 8.93911C61.7676 8.93911 67.0193 13.2387 68.2033 19.1622C68.3602 19.9477 68.9375 20.5936 69.7096 20.8473C72.851 21.8805 75.6773 23.7374 77.8832 26.2172C78.4207 26.8217 79.3467 26.876 79.9512 26.3383C80.5557 25.8006 80.6098 24.8747 80.0721 24.2704C77.6096 21.5016 74.4762 19.4045 70.9908 18.1885C69.3818 11.1069 63.023 6.00962 55.7162 6.00962C49.9756 6.00962 44.6545 9.20767 41.9346 14.2235C39.074 12.2206 35.6158 11.1885 32.1061 11.3022C23.6314 11.5795 16.8889 18.2018 16.4219 26.7061C16.3184 28.5905 16.5291 30.4446 17.049 32.2278C16.5039 32.2012 15.9543 32.202 15.408 32.2297C7.0625 32.6555 0.299023 39.5686 0.0105469 47.968C-0.223828 54.7918 3.73633 60.9786 9.93535 63.6026C9.86855 64.346 9.85293 65.0985 9.88867 65.8487C10.015 68.5016 10.8127 71.1059 12.1957 73.3801C12.4713 73.8336 12.9541 74.0842 13.4486 74.0842C13.708 74.0842 13.9705 74.0153 14.2084 73.8709C14.8996 73.4506 15.1193 72.5495 14.699 71.8583C13.5699 70.0008 12.9186 67.8745 12.815 65.7092C12.776 64.8838 12.8123 64.0559 12.9234 63.2493C13.049 62.3407 12.5207 61.4528 11.6674 61.1379C6.24648 59.1383 2.73867 53.8862 2.93848 48.0684C3.17539 41.1764 8.71816 35.5043 15.5572 35.1555C16.1998 35.1227 16.8479 35.1358 17.483 35.1942C18.3098 35.271 19.1158 34.9266 19.632 34.2731ZM30.4688 85.7348C26.473 85.7348 23.2221 88.9856 23.2221 92.9813C23.2221 96.977 26.473 100.228 30.4688 100.228C34.4645 100.228 37.7154 96.977 37.7154 92.9813C37.7154 88.9856 34.4645 85.7348 30.4688 85.7348ZM30.4688 97.2981C28.0883 97.2981 26.1518 95.3616 26.1518 92.9813C26.1518 90.601 28.0883 88.6645 30.4688 88.6645C32.8492 88.6645 34.7857 90.601 34.7857 92.9813C34.7857 95.3616 32.8492 97.2981 30.4688 97.2981ZM34.7541 37.0227C36.6307 37.0227 38.441 37.5754 39.9891 38.6213C40.6596 39.0743 41.5699 38.8979 42.0229 38.2274C42.4756 37.5571 42.2994 36.6465 41.6289 36.1936C39.5947 34.8194 37.2174 34.093 34.7541 34.093C27.975 34.093 22.4598 39.6083 22.4598 46.3874C22.4598 53.1665 27.975 58.6819 34.7541 58.6819C37.4277 58.6819 39.8201 57.81 41.6719 56.1606C42.035 55.837 42.3807 55.4807 42.699 55.1012C43.2189 54.4815 43.1379 53.5575 42.5182 53.0376C41.8982 52.5176 40.9744 52.5985 40.4545 53.2184C40.2271 53.4895 39.9811 53.7434 39.7234 53.9729C38.3979 55.1536 36.726 55.7522 34.7543 55.7522C29.5906 55.7522 25.3896 51.5512 25.3896 46.3874C25.3895 41.2239 29.5904 37.0227 34.7541 37.0227ZM88.3695 39.9752C87.4371 39.9184 86.5053 39.9653 85.5928 40.1143C85.625 39.4838 85.6309 38.8479 85.61 38.2168C85.5207 35.5235 84.96 32.9112 83.9434 30.4526C83.6342 29.7049 82.7775 29.3497 82.0299 29.6586C81.2824 29.9678 80.9269 30.8245 81.2361 31.5721C82.118 33.7047 82.6045 35.9729 82.6818 38.3139C82.7059 39.036 82.6897 39.7649 82.6336 40.4803C82.5719 41.2698 82.8768 42.0202 83.4703 42.5391C84.0611 43.0559 84.8416 43.2571 85.6096 43.0918C86.4506 42.911 87.3193 42.8461 88.191 42.8995C92.9535 43.1903 96.7631 47.0249 97.0522 51.8192C97.2137 54.4959 96.2986 57.0368 94.4758 58.9741C92.6689 60.8938 90.2281 61.9516 87.6027 61.9526C87.0605 61.9528 86.5379 62.1809 86.1691 62.579C85.8012 62.9758 85.6135 63.5124 85.6543 64.0518C85.9322 67.7153 84.6434 71.3573 82.1186 74.0438C79.5859 76.7387 76.167 78.1944 72.5117 78.1456C69.7098 78.1073 67.0449 77.1719 64.8051 75.4405C64.2631 75.0215 63.5672 74.8596 62.8971 74.9961C62.2277 75.1325 61.6523 75.5526 61.3186 76.1485C58.7814 80.6747 54.0016 83.4866 48.8441 83.4866C43.7855 83.4866 39.202 80.8811 36.5834 76.5169C36.2506 75.9624 35.6959 75.567 35.0615 75.4321C34.4246 75.2969 33.7529 75.4333 33.2195 75.8071C30.8266 77.485 28.0096 78.2876 25.0736 78.127C22.9295 78.0102 20.8273 77.345 18.9937 76.203C18.307 75.7756 17.4037 75.9852 16.976 76.6721C16.5484 77.3588 16.7584 78.2622 17.4449 78.6899C19.6961 80.0917 22.2789 80.9086 24.9141 81.0522C28.3057 81.2379 31.573 80.3719 34.3965 78.5458C37.5953 83.4856 42.9514 86.4159 48.8441 86.4159C54.841 86.4159 60.4125 83.2651 63.541 78.1495C66.174 80.0215 69.2478 81.0307 72.4717 81.0749C72.5428 81.0758 72.6133 81.0762 72.6842 81.0762C77.0381 81.076 81.2445 79.2514 84.2533 76.0499C87.1076 73.0126 88.6695 68.9751 88.6197 64.8411C91.6711 64.5948 94.4777 63.2461 96.6088 60.9817C98.991 58.4504 100.187 55.1338 99.9762 51.6426C99.5982 45.3719 94.6084 40.3561 88.3695 39.9752ZM73.0447 59.1872C71.159 61.8815 70.0336 63.3547 69.4291 64.1463C68.6816 65.1251 68.3063 65.6165 68.5539 66.4213C68.7002 66.8969 69.06 67.2616 69.5408 67.4219C69.7369 67.4872 74.3877 67.5372 76.0939 67.5157C76.9029 67.5055 77.5504 66.8415 77.54 66.0325C77.5301 65.2235 76.8732 64.5774 76.0568 64.5862C74.9398 64.6002 73.758 64.6098 72.7486 64.6127C73.3994 63.7391 74.2805 62.5307 75.4449 60.867C76.9609 58.701 77.0353 57.0479 77.0353 56.9797C77.0353 54.4911 75.0106 52.4663 72.5219 52.4663C70.3699 52.4663 68.5074 53.9971 68.093 56.1065C67.9369 56.9002 68.4541 57.6702 69.2479 57.8262C70.0416 57.9819 70.8117 57.4651 70.9678 56.6711C71.1129 55.9323 71.7666 55.396 72.5219 55.396C73.3689 55.396 74.0629 56.0643 74.1039 56.9014C74.1037 56.9014 73.7195 58.2231 73.0447 59.1872ZM56.6295 34.093C49.8504 34.093 44.3352 39.6083 44.3352 46.3874C44.3352 53.1665 49.8504 58.6819 56.6295 58.6819C63.4086 58.6819 68.9238 53.1667 68.9238 46.3874C68.9238 39.6081 63.4086 34.093 56.6295 34.093ZM56.6295 55.7522C51.4658 55.7522 47.2648 51.5512 47.2648 46.3874C47.2648 41.2237 51.4658 37.0227 56.6295 37.0227C61.7932 37.0227 65.9941 41.2237 65.9941 46.3874C65.9943 51.5512 61.7934 55.7522 56.6295 55.7522Z" fill="#F0EDE4"/>
</svg>
