<svg width="83" height="69" viewBox="0 0 83 69" fill="none" xmlns="http://www.w3.org/2000/svg">
<path d="M56.5913 21.5133C53.963 16.6301 48.8054 13.3108 42.8709 13.3108C34.8074 13.3108 28.175 19.4381 27.3758 27.2908C25.5898 26.4199 23.5839 25.9302 21.4633 25.9302C14.0022 25.9302 7.95361 31.9788 7.95361 39.4399C7.95361 46.901 14.0022 52.9495 21.4633 52.9495H37.2025" stroke="#3D4E3A" stroke-width="3.33438" stroke-miterlimit="10" stroke-linecap="round" stroke-linejoin="round"/>
<path d="M21.4631 25.9302C25.9283 25.9302 29.8874 28.0964 32.347 31.4351" stroke="#3D4E3A" stroke-width="3.33438" stroke-miterlimit="10" stroke-linecap="round" stroke-linejoin="round"/>
<path d="M18.6255 17.9494C20.3222 17.9494 21.6977 16.5739 21.6977 14.8772C21.6977 13.1804 20.3222 11.8049 18.6255 11.8049C16.9287 11.8049 15.5532 13.1804 15.5532 14.8772C15.5532 16.5739 16.9287 17.9494 18.6255 17.9494Z" stroke="#3D4E3A" stroke-width="3.33438" stroke-miterlimit="10" stroke-linecap="round" stroke-linejoin="round"/>
<path d="M54.5454 7.98482C56.2421 7.98482 57.6176 6.60933 57.6176 4.91258C57.6176 3.21582 56.2421 1.84033 54.5454 1.84033C52.8486 1.84033 51.4731 3.21582 51.4731 4.91258C51.4731 6.60933 52.8486 7.98482 54.5454 7.98482Z" stroke="#3D4E3A" stroke-width="3.33438" stroke-miterlimit="10" stroke-linecap="round" stroke-linejoin="round"/>
<path d="M4.73875 61.3479C6.43551 61.3479 7.811 59.9724 7.811 58.2756C7.811 56.5789 6.43551 55.2034 4.73875 55.2034C3.042 55.2034 1.6665 56.5789 1.6665 58.2756C1.6665 59.9724 3.042 61.3479 4.73875 61.3479Z" stroke="#3D4E3A" stroke-width="3.33438" stroke-miterlimit="10" stroke-linecap="round" stroke-linejoin="round"/>
<path d="M20.7107 37.0337C20.9199 37.0337 21.0895 37.2034 21.0896 37.4126C21.0896 37.6219 20.92 37.7915 20.7107 37.7915C20.5015 37.7914 20.3318 37.6218 20.3318 37.4126C20.3319 37.2035 20.5016 37.0338 20.7107 37.0337Z" stroke="#3D4E3A" stroke-width="3.33438"/>
<path d="M39.249 24.3613C39.4582 24.3613 39.6278 24.5311 39.6279 24.7402C39.6279 24.9495 39.4583 25.1191 39.249 25.1191C39.0398 25.119 38.8701 24.9494 38.8701 24.7402C38.8703 24.5311 39.0399 24.3615 39.249 24.3613Z" stroke="#3D4E3A" stroke-width="3.33438"/>
<path d="M29.4028 44.4038C29.612 44.4038 29.7816 44.5735 29.7817 44.7827C29.7817 44.992 29.6121 45.1616 29.4028 45.1616C29.1936 45.1615 29.0239 44.9919 29.0239 44.7827C29.0241 44.5736 29.1937 44.4039 29.4028 44.4038Z" stroke="#3D4E3A" stroke-width="3.33438"/>
<path d="M4.73877 19.6165C4.94798 19.6165 5.11754 19.7862 5.11768 19.9954C5.11768 20.2047 4.94807 20.3743 4.73877 20.3743C4.52959 20.3741 4.35986 20.2046 4.35986 19.9954C4.36 19.7863 4.52968 19.6166 4.73877 19.6165Z" stroke="#3D4E3A" stroke-width="3.33438"/>
<path d="M16.5791 65.0828C16.7883 65.0828 16.9579 65.2525 16.958 65.4617C16.958 65.671 16.7884 65.8406 16.5791 65.8406C16.3699 65.8404 16.2002 65.6709 16.2002 65.4617C16.2003 65.2526 16.37 65.0829 16.5791 65.0828Z" stroke="#3D4E3A" stroke-width="3.33438"/>
<path d="M42.1653 2.4873C42.3745 2.4873 42.5441 2.65704 42.5442 2.86621C42.5442 3.0755 42.3746 3.24512 42.1653 3.24512C41.9561 3.24498 41.7864 3.07542 41.7864 2.86621C41.7865 2.65712 41.9562 2.48744 42.1653 2.4873Z" stroke="#3D4E3A" stroke-width="3.33438"/>
<path d="M46.6619 66.6586C46.6619 66.6586 47.7782 50.413 66.6559 36.2295" stroke="#3D4E3A" stroke-width="3.33438" stroke-miterlimit="10" stroke-linecap="round" stroke-linejoin="round"/>
<path d="M49.7412 57.1906C49.7412 57.1906 83.7696 64.6489 80.9864 24.7581C80.9864 24.7581 41.6274 18.7548 44.901 53.1079" stroke="#3D4E3A" stroke-width="3.33438" stroke-miterlimit="10" stroke-linecap="round" stroke-linejoin="round"/>
</svg>
