<svg width="77" height="65" viewBox="0 0 77 65" fill="none" xmlns="http://www.w3.org/2000/svg">
<path d="M21 2H56L74 32.5L56 63H21L3 32.5L21 2Z" stroke="url(#paint0_linear_2451_1392)" stroke-width="4"/>
<g clip-path="url(#clip0_2451_1392)">
<path d="M55.612 34.8192L51.4314 23.3226C51.2124 22.7202 50.7717 22.2242 50.1994 21.9358C49.627 21.6473 48.9661 21.5884 48.3517 21.7708C47.7373 21.9533 47.2157 22.3635 46.8936 22.9176C46.5714 23.4717 46.4729 24.1278 46.6183 24.7521L48.5591 33.0913C48.3202 33.0331 48.0754 33.0024 47.8296 32.9999C47.4075 32.9986 46.9893 33.0812 46.5994 33.2427C46.2094 33.4043 45.8555 33.6416 45.5579 33.941L39.0001 40.4983L32.4429 33.941C32.0592 33.5514 31.5809 33.2682 31.0548 33.1192C30.5288 32.9702 29.973 32.9604 29.442 33.091L31.3824 24.7523C31.5277 24.128 31.4291 23.4718 31.1069 22.9176C30.7847 22.3635 30.2631 21.9533 29.6486 21.7708C29.0342 21.5882 28.3732 21.6472 27.8008 21.9355C27.2283 22.2238 26.7874 22.7198 26.5683 23.3222L22.3879 34.8192C22.0223 35.8192 21.9127 36.8948 22.0691 37.9481C22.2255 39.0013 22.6429 39.9986 23.2833 40.8493L26.9584 45.7499H26.2501C26.0623 45.7499 25.8821 45.8245 25.7492 45.9574C25.6164 46.0902 25.5418 46.2704 25.5418 46.4582V49.2916C25.5418 49.4794 25.6164 49.6596 25.7492 49.7924C25.8821 49.9253 26.0623 49.9999 26.2501 49.9999H51.7501C51.938 49.9999 52.1181 49.9253 52.251 49.7924C52.3838 49.6596 52.4584 49.4794 52.4584 49.2916V46.4582C52.4584 46.2704 52.3838 46.0902 52.251 45.9574C52.1181 45.8245 51.938 45.7499 51.7501 45.7499H51.0418L54.7171 40.8493C55.3575 39.9986 55.7748 39.0012 55.9311 37.948C56.0874 36.8948 55.9777 35.8192 55.612 34.8192ZM24.4163 39.9992C23.9177 39.3367 23.5927 38.56 23.4709 37.7399C23.3492 36.9197 23.4346 36.0821 23.7194 35.3034L27.8999 23.8065C27.9955 23.5432 28.188 23.3264 28.4381 23.2003C28.6882 23.0743 28.977 23.0485 29.2454 23.1282C29.5139 23.208 29.7418 23.3873 29.8825 23.6294C30.0232 23.8716 30.0661 24.1583 30.0024 24.4311L27.7462 34.1275C27.2129 34.737 26.9319 35.5269 26.9604 36.3363C26.9889 37.1457 27.3247 37.9138 27.8995 38.4843L32.1243 42.709C32.2579 42.8381 32.4368 42.9095 32.6226 42.9078C32.8083 42.9062 32.9859 42.8317 33.1173 42.7004C33.2486 42.5691 33.3231 42.3914 33.3247 42.2057C33.3263 42.02 33.2549 41.841 33.1259 41.7075L28.9012 37.4827C28.7344 37.3159 28.6021 37.1179 28.5118 36.9C28.4216 36.6821 28.3751 36.4485 28.3751 36.2127C28.3751 35.9768 28.4216 35.7432 28.5118 35.5253C28.6021 35.3074 28.7344 35.1094 28.9012 34.9427C29.2433 34.616 29.6982 34.4337 30.1712 34.4337C30.6442 34.4337 31.0991 34.616 31.4412 34.9427L38.2918 41.7932V45.7499H28.7293L24.4163 39.9992ZM26.9584 47.1666H38.2918V48.5832H26.9584V47.1666ZM51.0418 48.5832H39.7084V47.1666H51.0418V48.5832ZM53.5839 39.9992L49.2709 45.7499H39.7084V41.7932L46.5594 34.9427C46.9015 34.616 47.3563 34.4337 47.8294 34.4337C48.3024 34.4337 48.7573 34.616 49.0994 34.9427C49.4356 35.2798 49.6244 35.7365 49.6244 36.2127C49.6244 36.6888 49.4356 37.1455 49.0994 37.4827L44.8743 41.7075C44.7453 41.841 44.6739 42.02 44.6755 42.2057C44.6771 42.3914 44.7516 42.5691 44.8829 42.7004C45.0143 42.8317 45.1919 42.9062 45.3777 42.9078C45.5634 42.9095 45.7423 42.8381 45.8759 42.709L50.101 38.4843C50.6705 37.9111 51.0026 37.1441 51.031 36.3367C51.0594 35.5292 50.7821 34.7408 50.2544 34.1289L47.9974 24.4311C47.934 24.1583 47.977 23.8717 48.1178 23.6297C48.2586 23.3876 48.4864 23.2084 48.7548 23.1287C49.0232 23.049 49.3119 23.0747 49.562 23.2007C49.8121 23.3267 50.0046 23.5433 50.1003 23.8065L54.2811 35.3034C54.5657 36.0822 54.6509 36.9197 54.5291 37.7399C54.4074 38.56 54.0824 39.3367 53.5839 39.9992Z" fill="url(#paint1_linear_2451_1392)"/>
<path d="M31.2934 21.4689C31.9979 22.078 32.9002 22.4096 33.8314 22.4017C34.5936 22.3986 35.3415 22.1939 35.999 21.8084C36.3927 21.5814 36.8344 21.4508 37.2882 21.4273C37.6034 21.7245 37.8549 22.0828 38.0274 22.4802C38.1999 22.8776 38.2898 23.3059 38.2918 23.7391V23.8416C37.6696 23.8754 37.0505 23.9532 36.4393 24.0745C36.3583 24.077 36.2784 24.0939 36.2033 24.1246C35.0688 24.3654 33.9742 24.7664 32.9526 25.3156C32.8691 25.359 32.795 25.4186 32.7348 25.491C32.6745 25.5633 32.6293 25.647 32.6018 25.737C32.5742 25.827 32.5649 25.9216 32.5743 26.0153C32.5838 26.109 32.6118 26.1998 32.6568 26.2826C32.7018 26.3653 32.7628 26.4382 32.8363 26.4971C32.9097 26.5559 32.9942 26.5995 33.0847 26.6254C33.1753 26.6512 33.2701 26.6587 33.3635 26.6475C33.457 26.6363 33.5473 26.6065 33.6292 26.56C34.2797 26.2089 34.965 25.9264 35.674 25.7171C35.6412 26.6183 35.8893 27.5074 36.3839 28.2614C36.6569 28.6282 37.006 28.9316 37.4072 29.1508C37.8085 29.37 38.2524 29.4999 38.7086 29.5314C39.1222 29.5781 39.4902 29.6117 39.8198 29.6418C41.4985 29.795 41.8009 29.8226 42.2499 30.8114C42.622 31.6374 43.5697 32.0434 45.1358 32.0434C45.4111 32.0434 45.7056 32.031 46.0191 32.0061C46.2064 31.9912 46.3802 31.9026 46.5021 31.7596C46.6241 31.6167 46.6842 31.4311 46.6694 31.2438C46.6545 31.0565 46.5659 30.8827 46.4229 30.7608C46.2799 30.6388 46.0944 30.5787 45.9071 30.5935C44.2296 30.7274 43.6313 30.4282 43.5407 30.2276C42.75 28.4865 41.6958 28.3904 39.9485 28.231C39.6278 28.2016 39.2696 28.1691 38.8669 28.1237C38.6079 28.1119 38.3546 28.044 38.1243 27.9247C37.8941 27.8055 37.6924 27.6377 37.5333 27.433C37.1707 26.8176 37.0186 26.1008 37.0998 25.3911C39.586 24.973 42.1408 25.3836 44.3707 26.5599C44.4525 26.6064 44.5428 26.6361 44.6363 26.6474C44.7298 26.6586 44.8246 26.6511 44.9151 26.6252C45.0056 26.5994 45.0901 26.5558 45.1636 26.4969C45.2371 26.438 45.2981 26.3651 45.3431 26.2824C45.388 26.1997 45.4161 26.1088 45.4255 26.0152C45.435 25.9215 45.4256 25.8269 45.3981 25.7368C45.3705 25.6468 45.3253 25.5632 45.2651 25.4908C45.2048 25.4185 45.1308 25.3589 45.0472 25.3155C43.399 24.4341 41.5754 23.9305 39.7084 23.8413V23.7389C39.7103 23.3057 39.8001 22.8774 39.9726 22.48C40.145 22.0827 40.3965 21.7245 40.7117 21.4274C41.1652 21.4513 41.6068 21.5815 42.0008 21.8075C42.6583 22.1935 43.4063 22.3985 44.1687 22.4017C45.1 22.4095 46.0022 22.0779 46.7068 21.4689C48.8607 19.5842 48.077 16.6433 48.0424 16.5192C48.0047 16.3832 47.9273 16.2616 47.8201 16.17C47.7129 16.0783 47.5807 16.0207 47.4406 16.0046C47.3004 15.9885 47.1587 16.0147 47.0334 16.0797C46.9082 16.1447 46.8053 16.2456 46.7378 16.3694C46.4003 16.9902 46.2529 16.9747 45.4242 16.8855C44.6374 16.7701 43.8358 16.805 43.062 16.9882C40.8702 17.5419 40.0161 19.6515 39.7941 20.3321C39.4884 20.6109 39.2213 20.9295 39.0001 21.2793C38.7789 20.9295 38.5117 20.611 38.2059 20.3322C37.9838 19.6522 37.1302 17.5419 34.9386 16.9882C34.1646 16.8052 33.363 16.7703 32.576 16.8855C31.7497 16.9736 31.601 16.9906 31.2624 16.3694C31.1949 16.2456 31.092 16.1447 30.9668 16.0797C30.8416 16.0147 30.6998 15.9885 30.5596 16.0046C30.4195 16.0207 30.2873 16.0783 30.1801 16.17C30.0729 16.2616 29.9955 16.3832 29.9578 16.5192C29.9235 16.6433 29.1391 19.5842 31.2934 21.4689ZM43.4095 18.362C44.0206 18.22 44.6533 18.1969 45.273 18.2942C45.7772 18.3874 46.2964 18.3588 46.7872 18.2108C46.7737 18.6254 46.6771 19.033 46.5031 19.4096C46.3291 19.7861 46.0813 20.1239 45.7743 20.4029C45.3447 20.7444 44.8202 20.9449 44.2724 20.9772C43.7245 21.0094 43.1801 20.8718 42.7134 20.5831C42.6486 20.5455 42.5768 20.5203 42.5098 20.4861C43.0053 20.3407 43.5189 20.2663 44.0353 20.2649C44.0498 20.2649 44.0664 20.2642 44.0768 20.2649C44.2647 20.2656 44.4451 20.1915 44.5784 20.0592C44.7117 19.9268 44.7869 19.7469 44.7875 19.559C44.7882 19.3711 44.7142 19.1907 44.5818 19.0574C44.4494 18.9241 44.2695 18.8489 44.0816 18.8482C43.4165 18.8431 42.7543 18.9362 42.1164 19.1245C42.4681 18.7552 42.9161 18.4911 43.4095 18.362ZM32.7278 18.2942C33.3477 18.1968 33.9806 18.2198 34.5917 18.362C35.0827 18.4912 35.5279 18.7549 35.8772 19.1234C35.2564 18.9422 34.6131 18.8496 33.9664 18.8482H33.9194C33.7315 18.8489 33.5516 18.9241 33.4192 19.0574C33.2868 19.1907 33.2128 19.3711 33.2134 19.559C33.2141 19.7469 33.2893 19.9268 33.4226 20.0592C33.5559 20.1915 33.7363 20.2656 33.9242 20.2649C33.9342 20.2639 33.9515 20.2649 33.9657 20.2649C34.482 20.2663 34.9956 20.3407 35.491 20.4861C35.4241 20.5203 35.3523 20.5455 35.2876 20.5831C34.8208 20.8717 34.2764 21.0092 33.7286 20.9769C33.1808 20.9447 32.6563 20.7442 32.2267 20.4029C31.9197 20.1238 31.6718 19.786 31.4977 19.4094C31.3237 19.0328 31.2269 18.6251 31.2133 18.2105C31.704 18.3592 32.2237 18.3879 32.7278 18.2942Z" fill="url(#paint2_linear_2451_1392)"/>
<path d="M37.429 35.9716C37.3657 36.0402 37.3165 36.1206 37.2843 36.2082C37.2521 36.2958 37.2376 36.3888 37.2415 36.4821C37.2454 36.5753 37.2677 36.6669 37.3071 36.7515C37.3465 36.8361 37.4022 36.9121 37.4711 36.9751C37.5399 37.0381 37.6206 37.0868 37.7083 37.1186C37.7961 37.1503 37.8892 37.1644 37.9825 37.16C38.0757 37.1556 38.1671 37.1329 38.2515 37.093C38.3359 37.0532 38.4116 36.9971 38.4743 36.9279C38.5343 36.8639 38.5984 36.8038 38.6662 36.7481C39.114 36.3781 39.4663 35.9058 39.6932 35.3711C39.9202 34.8364 40.0153 34.2549 39.9704 33.6758C39.942 33.2977 39.8205 32.9325 39.6166 32.6129C39.4128 32.2932 39.1329 32.029 38.8021 31.8438C38.122 31.5521 37.3807 31.4315 36.6432 31.4927C35.9632 31.4979 35.3161 31.4968 35.0411 31.1793C34.9002 30.9803 34.7913 30.7604 34.7185 30.5277C34.591 30.047 34.3429 29.6068 33.9976 29.249C33.6523 28.8911 33.2212 28.6274 32.7454 28.4829C32.5656 28.4284 32.3715 28.4474 32.2058 28.536C32.0401 28.6245 31.9163 28.7753 31.8617 28.9551C31.8071 29.1349 31.8262 29.329 31.9148 29.4947C32.0033 29.6604 32.1541 29.7842 32.3339 29.8388C33.01 30.0442 33.1725 30.4621 33.3977 31.041C33.5247 31.4288 33.7196 31.791 33.9732 32.1106C34.6694 32.9155 35.7174 32.9172 36.6471 32.9096C37.1505 32.8642 37.6579 32.9269 38.135 33.0938C38.2599 33.173 38.3638 33.2811 38.4381 33.409C38.5124 33.5368 38.5548 33.6807 38.5618 33.8284C38.5806 34.1776 38.5167 34.5263 38.3752 34.8461C38.2337 35.1659 38.0187 35.4478 37.7477 35.6688C37.6352 35.763 37.5288 35.8641 37.429 35.9716Z" fill="url(#paint3_linear_2451_1392)"/>
</g>
<defs>
<linearGradient id="paint0_linear_2451_1392" x1="3" y1="32.5" x2="74" y2="32.5" gradientUnits="userSpaceOnUse">
<stop offset="0.322115" stop-color="#886808"/>
<stop offset="0.764423" stop-color="#C5A133"/>
</linearGradient>
<linearGradient id="paint1_linear_2451_1392" x1="21.9999" y1="35.8333" x2="56.0002" y2="35.8333" gradientUnits="userSpaceOnUse">
<stop offset="0.322115" stop-color="#886808"/>
<stop offset="0.764423" stop-color="#C5A133"/>
</linearGradient>
<linearGradient id="paint2_linear_2451_1392" x1="29.7908" y1="24.0217" x2="48.2095" y2="24.0217" gradientUnits="userSpaceOnUse">
<stop offset="0.322115" stop-color="#886808"/>
<stop offset="0.764423" stop-color="#C5A133"/>
</linearGradient>
<linearGradient id="paint3_linear_2451_1392" x1="31.8312" y1="32.8066" x2="39.9812" y2="32.8066" gradientUnits="userSpaceOnUse">
<stop offset="0.322115" stop-color="#886808"/>
<stop offset="0.764423" stop-color="#C5A133"/>
</linearGradient>
<clipPath id="clip0_2451_1392">
<rect width="34" height="34" fill="white" transform="translate(22 16)"/>
</clipPath>
</defs>
</svg>
